<svg width="24" height="24" viewBox="0 0 24 24" fill="none" xmlns="http://www.w3.org/2000/svg">
<path fill-rule="evenodd" clip-rule="evenodd" d="M22 12C22 17.5228 17.5228 22 12 22C6.47715 22 2 17.5228 2 12C2 6.47715 6.47715 2 12 2C17.5228 2 22 6.47715 22 12ZM7.1 12C7.1 11.5029 7.50294 11.1 8 11.1H11.1V8C11.1 7.50294 11.5029 7.1 12 7.1C12.4971 7.1 12.9 7.50294 12.9 8V11.1H16C16.4971 11.1 16.9 11.5029 16.9 12C16.9 12.4971 16.4971 12.9 16 12.9H12.9V16C12.9 16.4971 12.4971 16.9 12 16.9C11.5029 16.9 11.1 16.4971 11.1 16V12.9H8C7.50294 12.9 7.1 12.4971 7.1 12Z" fill="black"/>
</svg>
