<svg width="24" height="24" viewBox="0 0 24 24" fill="none" xmlns="http://www.w3.org/2000/svg">
<path fill-rule="evenodd" clip-rule="evenodd" d="M15.9097 2C15.9097 2 14.1171 2.00838 12.8274 3.70785V3.70817C11.6809 5.21967 11.9727 6.51224 11.9727 6.51224C11.9727 6.51224 13.5274 6.78114 14.8954 5.13745C16.1763 3.5979 15.9097 2 15.9097 2ZM13.1657 7.32069C12.7437 7.49078 12.397 7.63055 12.1372 7.63055C11.8134 7.63055 11.4228 7.48006 10.9688 7.30518C10.3393 7.06266 9.58801 6.77324 8.72439 6.77324C6.4378 6.77324 4 8.75675 4 12.7238C4 16.6908 6.88016 21.6258 9.15998 21.6254C9.51644 21.6254 9.96295 21.4646 10.4559 21.287C11.0635 21.0682 11.7416 20.8239 12.4087 20.8239C13.0208 20.8239 13.5515 21.0222 14.0753 21.2179C14.5855 21.4085 15.0892 21.5967 15.6551 21.5967C18.1516 21.5967 20 16.3942 20 16.3942C20 16.3942 17.3558 15.3705 17.3558 12.4001C17.3558 9.76689 19.4783 8.68163 19.4783 8.68163C19.4783 8.68163 18.3931 6.71875 15.6345 6.71875C14.6592 6.71875 13.8216 7.05635 13.1657 7.32069Z" fill="black"/>
</svg>
