<svg width="12" height="12" viewBox="0 0 12 12" fill="none" xmlns="http://www.w3.org/2000/svg">
<path fill-rule="evenodd" clip-rule="evenodd" d="M7.95485 1C7.95485 1 7.05853 1.00419 6.41369 1.85392V1.85409C5.84043 2.60983 5.98633 3.25612 5.98633 3.25612C5.98633 3.25612 6.76368 3.39057 7.44769 2.56873C8.08817 1.79895 7.95485 1 7.95485 1ZM6.58287 3.66035C6.37187 3.74539 6.19849 3.81527 6.06859 3.81527C5.9067 3.81527 5.71138 3.74003 5.48441 3.65259C5.16964 3.53133 4.794 3.38662 4.3622 3.38662C3.2189 3.38662 2 4.37838 2 6.36189C2 8.34541 3.44008 10.8129 4.57999 10.8127C4.75822 10.8127 4.98148 10.7323 5.22797 10.6435C5.53173 10.5341 5.87078 10.412 6.20433 10.412C6.51039 10.412 6.77574 10.5111 7.03763 10.6089C7.29275 10.7043 7.54458 10.7984 7.82755 10.7984C9.07579 10.7984 10 8.1971 10 8.1971C10 8.1971 8.67792 7.68526 8.67792 6.20004C8.67792 4.88345 9.73916 4.34082 9.73916 4.34082C9.73916 4.34082 9.19653 3.35938 7.81723 3.35938C7.32961 3.35938 6.91081 3.52817 6.58287 3.66035Z" fill="black"/>
</svg>
