<svg width="12" height="12" viewBox="0 0 12 12" fill="none" xmlns="http://www.w3.org/2000/svg">
<path fill-rule="evenodd" clip-rule="evenodd" d="M2.56482 1.96368C2.74832 1.67491 3.0667 1.5 3.40884 1.5H11C11.5523 1.5 12 1.94772 12 2.5V9.5C12 10.0523 11.5523 10.5 11 10.5H3.40884C3.0667 10.5 2.74832 10.3251 2.56482 10.0363L0.340798 6.53632C0.13282 6.20902 0.13282 5.79098 0.340798 5.46368L2.56482 1.96368ZM5.58102 4.08004C5.77628 3.88478 6.09286 3.88478 6.28813 4.08004L7.4971 5.28901L8.70601 4.08005C8.90127 3.88478 9.21785 3.88478 9.41312 4.08003C9.60839 4.27529 9.60839 4.59187 9.41313 4.78714L8.2042 5.99612L9.41319 7.2051C9.60845 7.40036 9.60845 7.71694 9.41319 7.91221C9.21792 8.10747 8.90134 8.10747 8.70608 7.91221L7.49711 6.70324L6.28819 7.9122C6.09293 8.10746 5.77635 8.10747 5.58108 7.91221C5.38582 7.71695 5.38581 7.40037 5.58107 7.20511L6.79 5.99613L5.58102 4.78715C5.38576 4.59189 5.38576 4.2753 5.58102 4.08004Z" fill="black"/>
</svg>
