<svg width="24" height="24" viewBox="0 0 24 24" fill="none" xmlns="http://www.w3.org/2000/svg">
<path fill-rule="evenodd" clip-rule="evenodd" d="M5.12964 3.92736C5.49663 3.34983 6.13341 3 6.81768 3H22C23.1046 3 24 3.89543 24 5V19C24 20.1046 23.1046 21 22 21H6.81768C6.13341 21 5.49663 20.6502 5.12964 20.0726L0.681597 13.0726C0.26564 12.418 0.265639 11.582 0.681596 10.9274L5.12964 3.92736ZM11.2327 8.23079C11.5842 7.87932 12.1541 7.87932 12.5055 8.23079L14.9942 10.7194L17.4827 8.2308C17.8342 7.87932 18.4041 7.87931 18.7555 8.23078C19.107 8.58224 19.107 9.15209 18.7556 9.50357L16.267 11.9922L18.7557 14.4809C19.1071 14.8324 19.1071 15.4022 18.7557 15.7537C18.4042 16.1052 17.8343 16.1052 17.4829 15.7537L14.9942 13.265L12.5057 15.7537C12.1542 16.1052 11.5844 16.1052 11.2329 15.7537C10.8814 15.4022 10.8814 14.8324 11.2329 14.4809L13.7214 11.9923L11.2327 9.50358C10.8813 9.15211 10.8813 8.58226 11.2327 8.23079Z" fill="black"/>
</svg>
