<svg width="12" height="12" viewBox="0 0 12 12" fill="none" xmlns="http://www.w3.org/2000/svg">
<path fill-rule="evenodd" clip-rule="evenodd" d="M11 6C11 8.76142 8.76142 11 6 11C3.23858 11 1 8.76142 1 6C1 3.23858 3.23858 1 6 1C8.76142 1 11 3.23858 11 6ZM4.08688 4.08785C4.28214 3.89259 4.59872 3.89259 4.79398 4.08785L6.00295 5.29682L7.21187 4.08786C7.40713 3.89259 7.72371 3.89259 7.91898 4.08785C8.11424 4.2831 8.11425 4.59969 7.91899 4.79495L6.71006 6.00393L7.91904 7.21291C8.1143 7.40817 8.1143 7.72476 7.91904 7.92002C7.72378 8.11528 7.4072 8.11528 7.21194 7.92002L6.00297 6.71105L4.79405 7.92001C4.59879 8.11528 4.28221 8.11528 4.08694 7.92002C3.89168 7.72477 3.89167 7.40818 4.08693 7.21292L5.29586 6.00394L4.08688 4.79496C3.89161 4.5997 3.89161 4.28311 4.08688 4.08785Z" fill="black"/>
</svg>
