<svg width="12" height="12" viewBox="0 0 12 12" fill="none" xmlns="http://www.w3.org/2000/svg">
<path fill-rule="evenodd" clip-rule="evenodd" d="M6 11C8.76142 11 11 8.76142 11 6C11 3.23858 8.76142 1 6 1C3.23858 1 1 3.23858 1 6C1 8.76142 3.23858 11 6 11ZM5.98267 5.47119C5.55786 5.73669 5.32068 6.00574 5.31714 6.88721V6.96509H6.25171V6.88721C6.25525 6.3916 6.43225 6.1615 6.83228 5.92432C7.29602 5.64465 7.59692 5.27649 7.59692 4.69238C7.59692 3.81799 6.89954 3.30469 5.91187 3.30469C5.00562 3.30469 4.26575 3.78259 4.24805 4.77734H5.25342C5.26758 4.36316 5.57556 4.14368 5.90479 4.14014C6.24817 4.14368 6.52429 4.37378 6.52075 4.72778C6.52429 5.05347 6.28711 5.27295 5.98267 5.47119ZM5.80566 7.38281C5.4729 7.37927 5.20386 7.64478 5.21094 7.97046C5.20386 8.29968 5.4729 8.56519 5.80566 8.56519C6.12073 8.56519 6.39331 8.29968 6.39331 7.97046C6.39331 7.64478 6.12073 7.37927 5.80566 7.38281Z" fill="black"/>
</svg>
