<svg width="12" height="12" viewBox="0 0 12 12" fill="none" xmlns="http://www.w3.org/2000/svg">
<path fill-rule="evenodd" clip-rule="evenodd" d="M2 1C1.44772 1 1 1.44772 1 2V10C1 10.5523 1.44772 11 2 11H10C10.5523 11 11 10.5523 11 10V2C11 1.44772 10.5523 1 10 1H2ZM4.13081 4.1276C4.06321 3.91728 3.83791 3.80159 3.6276 3.86919C3.41728 3.93679 3.30159 4.16209 3.36919 4.3724L3.76377 5.6H3.40039C3.17948 5.6 3.00039 5.77909 3.00039 6C3.00039 6.22091 3.17948 6.4 3.40039 6.4H4.02092L4.49419 7.8724C4.54736 8.03782 4.70124 8.15 4.875 8.15C5.04876 8.15 5.20264 8.03782 5.25581 7.8724L6 5.55715L6.74419 7.8724C6.79736 8.03782 6.95124 8.15 7.125 8.15C7.29876 8.15 7.45264 8.03782 7.50581 7.8724L7.97908 6.4H8.59998C8.82089 6.4 8.99998 6.22091 8.99998 6C8.99998 5.77909 8.82089 5.6 8.59998 5.6H8.23623L8.63081 4.3724C8.69841 4.16209 8.58272 3.93679 8.3724 3.86919C8.16209 3.80159 7.93679 3.91728 7.86919 4.1276L7.125 6.44285L6.38081 4.1276C6.32764 3.96218 6.17376 3.85 6 3.85C5.82624 3.85 5.67236 3.96218 5.61919 4.1276L4.875 6.44285L4.13081 4.1276Z" fill="black"/>
</svg>
