<svg width="24" height="24" viewBox="0 0 24 24" fill="none" xmlns="http://www.w3.org/2000/svg">
<path fill-rule="evenodd" clip-rule="evenodd" d="M4 2C2.89543 2 2 2.89543 2 4V20C2 21.1046 2.89543 22 4 22H20C21.1046 22 22 21.1046 22 20V4C22 2.89543 21.1046 2 20 2H4ZM8.16642 8.28579C8.04812 7.91774 7.65385 7.71528 7.28579 7.83358C6.91774 7.95188 6.71528 8.34615 6.83358 8.71421L7.66473 11.3H6.80078C6.41418 11.3 6.10078 11.6134 6.10078 12C6.10078 12.3866 6.41418 12.7 6.80078 12.7H8.11473L9.08358 15.7142C9.17663 16.0037 9.44593 16.2 9.75 16.2C10.0541 16.2 10.3234 16.0037 10.4164 15.7142L12 10.7875L13.5836 15.7142C13.6766 16.0037 13.9459 16.2 14.25 16.2C14.5541 16.2 14.8234 16.0037 14.9164 15.7142L15.8853 12.7H17.2C17.5866 12.7 17.9 12.3866 17.9 12C17.9 11.6134 17.5866 11.3 17.2 11.3H16.3353L17.1664 8.71421C17.2847 8.34615 17.0823 7.95188 16.7142 7.83358C16.3462 7.71528 15.9519 7.91774 15.8336 8.28579L14.25 13.2125L12.6664 8.28579C12.5734 7.99631 12.3041 7.8 12 7.8C11.6959 7.8 11.4266 7.99631 11.3336 8.28579L9.75 13.2125L8.16642 8.28579Z" fill="black"/>
</svg>
