<svg width="12" height="12" viewBox="0 0 12 12" fill="none" xmlns="http://www.w3.org/2000/svg">
<path fill-rule="evenodd" clip-rule="evenodd" d="M6 11C8.76142 11 11 8.76142 11 6C11 3.23858 8.76142 1 6 1C3.23858 1 1 3.23858 1 6C1 8.76142 3.23858 11 6 11ZM6.56435 6.9646L6.65639 3.375H5.56605L5.6581 6.9646H6.56435ZM6.1183 7.38232C5.78554 7.37878 5.51649 7.64429 5.52357 7.96997C5.51649 8.29919 5.78554 8.5647 6.1183 8.5647C6.43336 8.5647 6.70595 8.29919 6.70595 7.96997C6.70595 7.64429 6.43336 7.37878 6.1183 7.38232Z" fill="black"/>
</svg>
