<svg width="24" height="24" viewBox="0 0 24 24" fill="none" xmlns="http://www.w3.org/2000/svg">
<path fill-rule="evenodd" clip-rule="evenodd" d="M12 22C17.5228 22 22 17.5228 22 12C22 6.47715 17.5228 2 12 2C6.47715 2 2 6.47715 2 12C2 17.5228 6.47715 22 12 22ZM13.1287 13.9292L13.3128 6.75H11.1321L11.3162 13.9292H13.1287ZM12.2366 14.7646C11.5711 14.7576 11.033 15.2886 11.0471 15.9399C11.033 16.5984 11.5711 17.1294 12.2366 17.1294C12.8667 17.1294 13.4119 16.5984 13.4119 15.9399C13.4119 15.2886 12.8667 14.7576 12.2366 14.7646Z" fill="black"/>
</svg>
