<svg width="24" height="24" viewBox="0 0 24 24" fill="none" xmlns="http://www.w3.org/2000/svg">
<path fill-rule="evenodd" clip-rule="evenodd" d="M12 20.2C16.5287 20.2 20.2 16.5287 20.2 12C20.2 7.47126 16.5287 3.8 12 3.8C7.47126 3.8 3.8 7.47126 3.8 12C3.8 16.5287 7.47126 20.2 12 20.2ZM12 22C17.5228 22 22 17.5228 22 12C22 6.47715 17.5228 2 12 2C6.47715 2 2 6.47715 2 12C2 17.5228 6.47715 22 12 22ZM7 12C7 11.4477 7.44772 11 8 11H11V8C11 7.44772 11.4477 7 12 7C12.5523 7 13 7.44772 13 8V11H16C16.5523 11 17 11.4477 17 12C17 12.5523 16.5523 13 16 13H13V16C13 16.5523 12.5523 17 12 17C11.4477 17 11 16.5523 11 16V13H8C7.44772 13 7 12.5523 7 12Z" fill="black"/>
</svg>
