<svg width="24" height="24" viewBox="0 0 24 24" fill="none" xmlns="http://www.w3.org/2000/svg">
<path fill-rule="evenodd" clip-rule="evenodd" d="M12 20.2C16.5287 20.2 20.2 16.5287 20.2 12C20.2 7.47126 16.5287 3.8 12 3.8C7.47126 3.8 3.8 7.47126 3.8 12C3.8 16.5287 7.47126 20.2 12 20.2ZM12 22C17.5228 22 22 17.5228 22 12C22 6.47715 17.5228 2 12 2C6.47715 2 2 6.47715 2 12C2 17.5228 6.47715 22 12 22ZM8.24446 8.24642C8.59594 7.89494 9.16578 7.89494 9.51726 8.24642L12.0059 10.7351L14.4945 8.24643C14.8459 7.89495 15.4158 7.89494 15.7672 8.2464C16.1187 8.59787 16.1187 9.16772 15.7673 9.5192L13.2787 12.0079L15.7674 14.4965C16.1188 14.848 16.1188 15.4179 15.7674 15.7693C15.4159 16.1208 14.8461 16.1208 14.4946 15.7693L12.0059 13.2807L9.51738 15.7693C9.16592 16.1208 8.59607 16.1208 8.24459 15.7693C7.89311 15.4179 7.8931 14.848 8.24457 14.4965L10.7331 12.0079L8.24446 9.51921C7.89299 9.16774 7.89299 8.59789 8.24446 8.24642Z" fill="black"/>
</svg>
