<svg width="24" height="24" viewBox="0 0 24 24" fill="none" xmlns="http://www.w3.org/2000/svg">
<path fill-rule="evenodd" clip-rule="evenodd" d="M18.4887 19.761C18.8402 20.1125 19.41 20.1125 19.7615 19.761C20.113 19.4095 20.113 18.8397 19.7615 18.4882L13.2729 11.9996L19.7615 5.51101C20.113 5.15953 20.113 4.58969 19.7615 4.23821C19.41 3.88674 18.8402 3.88674 18.4887 4.23821L12.0001 10.7268L5.51149 4.23821C5.16002 3.88674 4.59017 3.88674 4.2387 4.23821C3.88723 4.58969 3.88723 5.15953 4.2387 5.51101L10.7273 11.9996L4.2387 18.4882C3.88723 18.8397 3.88723 19.4095 4.2387 19.761C4.59017 20.1125 5.16002 20.1125 5.51149 19.761L12.0001 13.2724L18.4887 19.761Z" fill="black"/>
</svg>
