<svg width="12" height="12" viewBox="0 0 12 12" fill="none" xmlns="http://www.w3.org/2000/svg">
<path fill-rule="evenodd" clip-rule="evenodd" d="M9.20895 9.91605C9.40421 10.1113 9.72079 10.1113 9.91605 9.91605C10.1113 9.72079 10.1113 9.40421 9.91605 9.20895L6.70711 6L9.91605 2.79105C10.1113 2.59579 10.1113 2.27921 9.91605 2.08395C9.72079 1.88868 9.40421 1.88868 9.20895 2.08395L6 5.29289L2.79105 2.08395C2.59579 1.88868 2.27921 1.88868 2.08395 2.08395C1.88868 2.27921 1.88868 2.59579 2.08395 2.79105L5.29289 6L2.08395 9.20895C1.88868 9.40421 1.88868 9.72079 2.08395 9.91605C2.27921 10.1113 2.59579 10.1113 2.79105 9.91605L6 6.70711L9.20895 9.91605Z" fill="black"/>
</svg>
