<svg width="12" height="12" viewBox="0 0 12 12" fill="none" xmlns="http://www.w3.org/2000/svg">
<path fill-rule="evenodd" clip-rule="evenodd" d="M10 6C10 8.20914 8.20914 10 6 10C3.79086 10 2 8.20914 2 6C2 3.79086 3.79086 2 6 2C8.20914 2 10 3.79086 10 6ZM11 6C11 8.76142 8.76142 11 6 11C3.23858 11 1 8.76142 1 6C1 3.23858 3.23858 1 6 1C8.76142 1 11 3.23858 11 6ZM5.73462 5.1665C5.30981 5.43201 5.07263 5.70105 5.06909 6.58252V6.6604H6.00366V6.58252C6.0072 6.08691 6.1842 5.85681 6.58423 5.61963C7.04797 5.33997 7.34888 4.9718 7.34888 4.3877C7.34888 3.51331 6.65149 3 5.66382 3C4.75757 3 4.0177 3.47791 4 4.47266H5.00537C5.01953 4.05847 5.32751 3.83899 5.65674 3.83545C6.00012 3.83899 6.27625 4.06909 6.27271 4.4231C6.27625 4.74878 6.03906 4.96826 5.73462 5.1665ZM5.55762 7.07812C5.22485 7.07458 4.95581 7.34009 4.96289 7.66577C4.95581 7.995 5.22485 8.2605 5.55762 8.2605C5.87268 8.2605 6.14526 7.995 6.14526 7.66577C6.14526 7.34009 5.87268 7.07458 5.55762 7.07812Z" fill="black"/>
</svg>
