<svg width="16" height="15" viewBox="0 0 16 15" fill="none" xmlns="http://www.w3.org/2000/svg">
<path fill-rule="evenodd" clip-rule="evenodd" d="M14 7.5C14 10.8137 11.3137 13.5 8 13.5C4.68629 13.5 2 10.8137 2 7.5C2 4.18629 4.68629 1.5 8 1.5C11.3137 1.5 14 4.18629 14 7.5ZM15.5 7.5C15.5 11.6421 12.1421 15 8 15C3.85786 15 0.5 11.6421 0.5 7.5C0.5 3.35786 3.85786 0 8 0C12.1421 0 15.5 3.35786 15.5 7.5ZM7.97302 6.70288C7.33582 7.10114 6.98004 7.5047 6.97473 8.8269V8.94373H8.37659V8.8269C8.3819 8.0835 8.6474 7.73834 9.24744 7.38257C9.94305 6.96307 10.3944 6.41083 10.3944 5.53467C10.3944 4.22308 9.34833 3.45312 7.86682 3.45312C6.50745 3.45312 5.39764 4.16998 5.37109 5.66211H6.87915C6.90039 5.04083 7.36237 4.71161 7.8562 4.7063C8.37128 4.71161 8.78546 5.05676 8.78015 5.58777C8.78546 6.07629 8.42969 6.40552 7.97302 6.70288ZM7.70752 9.57031C7.20837 9.565 6.80481 9.96326 6.81543 10.4518C6.80481 10.9456 7.20837 11.3439 7.70752 11.3439C8.18011 11.3439 8.58899 10.9456 8.58899 10.4518C8.58899 9.96326 8.18011 9.565 7.70752 9.57031Z" fill="#353542"/>
</svg>
