<svg width="24" height="24" viewBox="0 0 24 24" fill="none" xmlns="http://www.w3.org/2000/svg">
<path fill-rule="evenodd" clip-rule="evenodd" d="M20.2 12C20.2 16.5287 16.5287 20.2 12 20.2C7.47126 20.2 3.8 16.5287 3.8 12C3.8 7.47126 7.47126 3.8 12 3.8C16.5287 3.8 20.2 7.47126 20.2 12ZM22 12C22 17.5228 17.5228 22 12 22C6.47715 22 2 17.5228 2 12C2 6.47715 6.47715 2 12 2C17.5228 2 22 6.47715 22 12ZM11.9653 10.9424C11.1157 11.4734 10.6414 12.0115 10.6343 13.7744V13.9302H12.5034V13.7744C12.5105 12.7832 12.8645 12.323 13.6646 11.8486C14.592 11.2893 15.1938 10.553 15.1938 9.38477C15.1938 7.63599 13.7991 6.60938 11.8237 6.60938C10.0112 6.60938 8.53149 7.56519 8.49609 9.55469H10.5068C10.5352 8.72632 11.1511 8.28735 11.8096 8.28027C12.4963 8.28735 13.0486 8.74756 13.0415 9.45557C13.0486 10.1069 12.5742 10.5459 11.9653 10.9424ZM11.6113 14.7656C10.9458 14.7585 10.4077 15.2896 10.4219 15.9409C10.4077 16.5994 10.9458 17.1304 11.6113 17.1304C12.2415 17.1304 12.7866 16.5994 12.7866 15.9409C12.7866 15.2896 12.2415 14.7585 11.6113 14.7656Z" fill="black"/>
</svg>
