<svg width="12" height="12" viewBox="0 0 12 12" fill="none" xmlns="http://www.w3.org/2000/svg">
<path fill-rule="evenodd" clip-rule="evenodd" d="M10.0167 2.25006C10.0167 1.96472 9.78541 1.7334 9.50007 1.7334C9.21472 1.7334 8.9834 1.96472 8.9834 2.25006V3.31064C8.2486 2.49604 7.18448 1.98338 6.00007 1.98338C3.78172 1.98338 1.9834 3.7817 1.9834 6.00005C1.9834 8.21839 3.78172 10.0167 6.00007 10.0167C7.82039 10.0167 9.35664 8.80622 9.85033 7.14743C9.93172 6.87393 9.776 6.58624 9.50251 6.50485C9.22901 6.42345 8.94132 6.57918 8.85993 6.85267C8.49306 8.08536 7.35076 8.98338 6.00007 8.98338C4.35242 8.98338 3.01673 7.6477 3.01673 6.00005C3.01673 4.3524 4.35242 3.01671 6.00007 3.01671C6.98598 3.01671 7.8609 3.49495 8.40442 4.23339H6.83688C6.55153 4.23339 6.32021 4.46471 6.32021 4.75006C6.32021 5.03541 6.55153 5.26673 6.83688 5.26673H9.50007C9.78541 5.26673 10.0167 5.03541 10.0167 4.75006V2.25006Z" fill="black"/>
</svg>
