<svg width="24" height="24" viewBox="0 0 24 24" fill="none" xmlns="http://www.w3.org/2000/svg">
<path fill-rule="evenodd" clip-rule="evenodd" d="M19.9001 4.49961C19.9001 4.00255 19.4972 3.59961 19.0001 3.59961C18.503 3.59961 18.1001 4.00255 18.1001 4.49961V6.9795C16.6518 5.22164 14.4575 4.09957 12.0001 4.09957C7.63705 4.09957 4.1001 7.63652 4.1001 11.9996C4.1001 16.3626 7.63705 19.8996 12.0001 19.8996C15.5802 19.8996 18.6018 17.5189 19.5728 14.2563C19.7146 13.7799 19.4433 13.2788 18.9669 13.137C18.4905 12.9952 17.9894 13.2664 17.8476 13.7428C17.0975 16.2632 14.7621 18.0996 12.0001 18.0996C8.63116 18.0996 5.9001 15.3685 5.9001 11.9996C5.9001 8.63064 8.63116 5.89957 12.0001 5.89957C14.1092 5.89957 15.9696 6.9699 17.0656 8.5996H13.6737C13.1767 8.5996 12.7737 9.00254 12.7737 9.4996C12.7737 9.99665 13.1767 10.3996 13.6737 10.3996H19.0001C19.4972 10.3996 19.9001 9.99665 19.9001 9.4996V4.49961Z" fill="black"/>
</svg>
