<svg width="12" height="12" viewBox="0 0 12 12" fill="none" xmlns="http://www.w3.org/2000/svg">
<path fill-rule="evenodd" clip-rule="evenodd" d="M10 6C10 8.20914 8.20914 10 6 10C3.79086 10 2 8.20914 2 6C2 3.79086 3.79086 2 6 2C8.20914 2 10 3.79086 10 6ZM11 6C11 8.76142 8.76142 11 6 11C3.23858 11 1 8.76142 1 6C1 3.23858 3.23858 1 6 1C8.76142 1 11 3.23858 11 6ZM6.56435 6.9646L6.65639 3.375H5.56605L5.6581 6.9646H6.56435ZM6.1183 7.38232C5.78554 7.37878 5.51649 7.64429 5.52357 7.96997C5.51649 8.29919 5.78554 8.5647 6.1183 8.5647C6.43336 8.5647 6.70595 8.29919 6.70595 7.96997C6.70595 7.64429 6.43336 7.37878 6.1183 7.38232Z" fill="black"/>
</svg>
