<svg width="24" height="24" viewBox="0 0 24 24" fill="none" xmlns="http://www.w3.org/2000/svg">
<path fill-rule="evenodd" clip-rule="evenodd" d="M20.2 12C20.2 16.5287 16.5287 20.2 12 20.2C7.47126 20.2 3.8 16.5287 3.8 12C3.8 7.47126 7.47126 3.8 12 3.8C16.5287 3.8 20.2 7.47126 20.2 12ZM22 12C22 17.5228 17.5228 22 12 22C6.47715 22 2 17.5228 2 12C2 6.47715 6.47715 2 12 2C17.5228 2 22 6.47715 22 12ZM13.1287 13.9292L13.3128 6.75H11.1321L11.3162 13.9292H13.1287ZM12.2366 14.7646C11.5711 14.7576 11.033 15.2886 11.0471 15.9399C11.033 16.5984 11.5711 17.1294 12.2366 17.1294C12.8667 17.1294 13.4119 16.5984 13.4119 15.9399C13.4119 15.2886 12.8667 14.7576 12.2366 14.7646Z" fill="black"/>
</svg>
