<svg width="24" height="24" viewBox="0 0 24 24" fill="none" xmlns="http://www.w3.org/2000/svg">
<path fill-rule="evenodd" clip-rule="evenodd" d="M6.43103 15.3839L6.37762 15.2808L6.31452 15.1834C5.86798 14.4938 5.29386 13.814 4.5381 13.2804C4.45133 12.7853 4.4 12.3603 4.4 11.9515C4.4 11.5199 4.42426 11.1499 4.47638 10.8153C5.17443 10.3352 5.78846 9.72514 6.31452 8.91277C6.91121 7.9913 7.16151 7.02623 7.22035 6.12235C7.85088 5.60335 8.55303 5.19156 9.33284 4.89593C10.1323 5.257 11.0254 5.47194 12 5.47194C12.9948 5.47194 13.9048 5.24797 14.7169 4.87323C15.4938 5.14856 16.2369 5.58569 16.9043 6.14196C16.9949 7.05105 17.2837 7.87193 17.669 8.6157C18.1229 9.49192 18.7837 10.2031 19.5182 10.7242C19.573 11.0876 19.6 11.4968 19.6 11.9515C19.6 12.3491 19.5502 12.7693 19.468 13.2259C18.7699 13.7222 18.1395 14.379 17.669 15.2874C17.3 15.9996 17.0038 16.8126 16.9075 17.6998C16.2415 18.2759 15.4609 18.7253 14.5888 19.039C13.8593 18.7455 13.0128 18.5277 12.1 18.5277C11.0958 18.5277 10.2427 18.7562 9.49286 19.1103C8.61753 18.8027 7.84962 18.3732 7.19447 17.8455C7.10254 16.9412 6.81461 16.1244 6.43103 15.3839ZM2 11.9515C2 12.9167 2.2 13.8819 2.4 14.8471C3.2 15.1366 3.8 15.7157 4.3 16.4879C4.7 17.26 4.9 18.0321 4.8 18.9008C6.1 20.252 7.8 21.2172 9.8 21.6998C10.5 21.2172 11.2 20.9277 12.1 20.9277C12.9 20.9277 13.7 21.2172 14.4 21.6033C16.3 21.1207 18 20.1555 19.3 18.7078C19.2 17.9356 19.4 17.1635 19.8 16.3913C20.2 15.6192 20.8 15.1366 21.6 14.7506C21.8 13.8819 22 12.9167 22 11.9515C22 10.9864 21.9 10.0212 21.6 9.15254C20.9 8.86299 20.2 8.28388 19.8 7.51174C19.4 6.73961 19.2 5.96747 19.3 5.09881C18 3.74757 16.3 2.68587 14.4 2.2998C13.7 2.78239 12.9 3.07194 12 3.07194C11.1 3.07194 10.3 2.78239 9.6 2.2998C7.7 2.78239 6.1 3.74757 4.8 5.09881C4.9 5.96747 4.8 6.83612 4.3 7.60826C3.8 8.3804 3.2 8.86299 2.4 9.24906C2.1 10.1177 2 10.9864 2 11.9515ZM14.1 12C14.1 13.1598 13.1598 14.1 12 14.1C10.8402 14.1 9.9 13.1598 9.9 12C9.9 10.8402 10.8402 9.9 12 9.9C13.1598 9.9 14.1 10.8402 14.1 12ZM16.5 12C16.5 14.4853 14.4853 16.5 12 16.5C9.51472 16.5 7.5 14.4853 7.5 12C7.5 9.51472 9.51472 7.5 12 7.5C14.4853 7.5 16.5 9.51472 16.5 12Z" fill="black"/>
</svg>
