<svg width="12" height="12" viewBox="0 0 12 12" fill="none" xmlns="http://www.w3.org/2000/svg">
<path fill-rule="evenodd" clip-rule="evenodd" d="M9.42392 3.42563C9.65824 3.19132 9.65824 2.81142 9.42392 2.5771C9.18961 2.34279 8.80971 2.34279 8.57539 2.5771L5.99966 5.15284L3.42392 2.5771C3.18961 2.34279 2.80971 2.34279 2.57539 2.5771C2.34108 2.81142 2.34108 3.19132 2.57539 3.42563L5.15113 6.00137L2.57539 8.5771C2.34108 8.81142 2.34108 9.19132 2.57539 9.42563C2.80971 9.65995 3.18961 9.65995 3.42392 9.42563L5.99966 6.8499L8.57539 9.42563C8.80971 9.65995 9.18961 9.65995 9.42392 9.42563C9.65824 9.19132 9.65824 8.81142 9.42392 8.5771L6.84819 6.00137L9.42392 3.42563Z" fill="black"/>
</svg>
