<svg width="12" height="12" viewBox="0 0 12 12" fill="none" xmlns="http://www.w3.org/2000/svg">
<path fill-rule="evenodd" clip-rule="evenodd" d="M3.21551 7.69244L3.18881 7.6409L3.15726 7.59217C2.93399 7.24738 2.64693 6.90748 2.26905 6.64068C2.22566 6.39313 2.2 6.18062 2.2 5.97626C2.2 5.76042 2.21213 5.57542 2.23819 5.40813C2.58721 5.16809 2.89423 4.86306 3.15726 4.45687C3.45561 3.99614 3.58075 3.5136 3.61017 3.06166C3.92544 2.80216 4.27651 2.59627 4.66642 2.44845C5.06615 2.62899 5.51272 2.73646 6 2.73646C6.4974 2.73646 6.95239 2.62448 7.35844 2.4371C7.74691 2.57477 8.11845 2.79333 8.45215 3.07147C8.49744 3.52601 8.64183 3.93645 8.83449 4.30834C9.06145 4.74645 9.39184 5.10204 9.75908 5.3626C9.78648 5.54428 9.8 5.74887 9.8 5.97626C9.8 6.17505 9.77509 6.38514 9.73402 6.61343C9.38497 6.86161 9.06977 7.19001 8.83449 7.64418C8.65001 8.00029 8.50188 8.40681 8.45374 8.85039C8.12077 9.13843 7.73045 9.36314 7.29439 9.52001C6.92963 9.37325 6.50638 9.26432 6.05 9.26432C5.54791 9.26432 5.12136 9.37861 4.74643 9.55564C4.30877 9.40182 3.92481 9.18711 3.59723 8.92323C3.55127 8.47111 3.40731 8.06267 3.21551 7.69244ZM1 5.97626C1 6.45885 1.1 6.94143 1.2 7.42402C1.6 7.5688 1.9 7.85835 2.15 8.24442C2.35 8.63049 2.45 9.01656 2.4 9.45089C3.05 10.1265 3.9 10.6091 4.9 10.8504C5.25 10.6091 5.6 10.4643 6.05 10.4643C6.45 10.4643 6.85 10.6091 7.2 10.8021C8.15 10.5608 9 10.0783 9.65 9.35437C9.6 8.9683 9.7 8.58223 9.9 8.19616C10.1 7.81009 10.4 7.5688 10.8 7.37576C10.9 6.94143 11 6.45885 11 5.97626C11 5.49367 10.95 5.01109 10.8 4.57676C10.45 4.43198 10.1 4.14243 9.9 3.75636C9.7 3.37029 9.6 2.98422 9.65 2.54989C9 1.87427 8.15 1.34343 7.2 1.15039C6.85 1.39168 6.45 1.53646 6 1.53646C5.55 1.53646 5.15 1.39168 4.8 1.15039C3.85 1.39168 3.05 1.87427 2.4 2.54989C2.45 2.98422 2.4 3.41855 2.15 3.80462C1.9 4.19069 1.6 4.43198 1.2 4.62502C1.05 5.05935 1 5.49367 1 5.97626ZM7.05 6.00098C7.05 6.58088 6.5799 7.05098 6 7.05098C5.4201 7.05098 4.95 6.58088 4.95 6.00098C4.95 5.42108 5.4201 4.95098 6 4.95098C6.5799 4.95098 7.05 5.42108 7.05 6.00098ZM8.25 6.00098C8.25 7.24362 7.24264 8.25098 6 8.25098C4.75736 8.25098 3.75 7.24362 3.75 6.00098C3.75 4.75834 4.75736 3.75098 6 3.75098C7.24264 3.75098 8.25 4.75834 8.25 6.00098Z" fill="black"/>
</svg>
