<svg width="12" height="12" viewBox="0 0 12 12" fill="none" xmlns="http://www.w3.org/2000/svg">
<path fill-rule="evenodd" clip-rule="evenodd" d="M8.17441 4.92368C7.9401 5.15799 7.5602 5.15799 7.32588 4.92368L6.60015 4.19794V6.24941C6.60015 6.58078 6.33152 6.84941 6.00015 6.84941C5.66878 6.84941 5.40015 6.58078 5.40015 6.24941L5.40015 4.19794L4.67441 4.92368C4.4401 5.15799 4.0602 5.15799 3.82588 4.92368C3.59157 4.68936 3.59157 4.30946 3.82588 4.07515L5.57588 2.32515C5.8102 2.09084 6.1901 2.09084 6.42441 2.32515L8.17441 4.07515C8.40872 4.30946 8.40872 4.68936 8.17441 4.92368ZM9.60017 9.24932V7.24932C9.60017 6.91794 9.33154 6.64932 9.00017 6.64932C8.71668 6.64932 8.4791 6.84593 8.41637 7.11024C8.40576 7.1549 8.40015 7.2015 8.40015 7.24941V8.64932H3.60017L3.60017 7.24932C3.60017 6.91794 3.33154 6.64932 3.00017 6.64932C2.71731 6.64932 2.48017 6.84505 2.4168 7.10845C2.40591 7.15366 2.40015 7.20086 2.40015 7.24941L2.40015 9.24941C2.40015 9.40854 2.46336 9.56116 2.57588 9.67368C2.6884 9.7862 2.84102 9.84941 3.00015 9.84941H9.00015C9.15928 9.84941 9.31189 9.7862 9.42441 9.67368C9.50266 9.59543 9.55706 9.49779 9.58295 9.39205C9.5943 9.34571 9.60017 9.29782 9.60017 9.24932Z" fill="black"/>
</svg>
